<?xml version="1.0" encoding="UTF-8" standalone="no"?>
<svg width="512px" height="512px" viewBox="0 0 512 512" version="1.1" xmlns="http://www.w3.org/2000/svg" xmlns:xlink="http://www.w3.org/1999/xlink">
    <!-- Generator: Sketch 49.3 (51167) - http://www.bohemiancoding.com/sketch -->
    <title>card-fraud</title>
    <desc>Created with Sketch.</desc>
    <defs>
        <linearGradient x1="1.11022302e-14%" y1="1.72254642e-14%" x2="100%" y2="100%" id="linearGradient-1">
            <stop stop-color="#FB6E00" offset="0%"></stop>
            <stop stop-color="#D20000" offset="100%"></stop>
        </linearGradient>
    </defs>
    <g id="icons---Gradient" stroke="none" stroke-width="1" fill="none" fill-rule="evenodd">
        <path d="M488,149 L334.183,149 C334.279,148.443 334.339,147.874 334.339,147.29 L334.339,128.819 C354.763,124.126 370,105.849 370,84 C370,62.029 354.593,43.668 333.996,39.102 C333.996,39.076 334,39.051 334,39.025 L334,10 C334,4.477 329.522,0 324,0 C318.478,0 314,4.477 314,10 L314,39.025 C314,39.051 314.004,39.076 314.004,39.102 C293.407,43.668 278,62.029 278,84 C278,106.09 293.574,124.536 314.339,128.975 L314.339,147.29 C314.339,147.874 314.4,148.443 314.495,149 L192,149 C192,143.229 192,136.597 192,127.87 L192,118.92 L205.701,127.481 C210.385,130.407 216.554,128.982 219.481,124.299 C222.407,119.615 220.982,113.446 216.299,110.519 L187.299,92.4 C180.638,88.239 172,93.027 172,100.881 L172,149 L24,149 C10.745,149 0,159.745 0,173 L0,488 C0,501.255 10.745,512 24,512 L488,512 C501.255,512 512,501.255 512,488 L512,173 C512,159.745 501.255,149 488,149 Z M324,58 C334.815,58 344.086,64.605 348.004,74 L299.996,74 C303.914,64.605 313.185,58 324,58 Z M299.996,94 L348.004,94 C344.086,103.395 334.816,110 324,110 C313.184,110 303.914,103.395 299.996,94 Z M20,173 C20,170.791 21.791,169 24,169 L172,169 L172,190 L20,190 L20,173 Z M20,210 L173.375,210 C176.405,229.35 184.479,244.779 197.409,256 L20,256 L20,210 Z M492,488 C492,490.209 490.209,492 488,492 L24,492 C21.791,492 20,490.209 20,488 L20,276 L492,276 L492,488 Z M492,189.945 L224,189.945 C218.477,189.945 214,194.422 214,199.945 C214,205.468 218.477,209.945 224,209.945 L492,209.945 L492,256 L244.336,256 C243.739,255.863 242.882,255.638 242.062,255.469 C208.099,248.442 192,227.867 192,191.651 C192,182.138 192,175.161 192,169 L488,169 C490.209,169 492,170.791 492,173 L492,189.945 Z M318,456 C331.473,456 344.318,451.813 355.016,444.216 C365.462,451.628 378.217,456 392,456 C427.347,456 456,427.347 456,392 C456,356.654 427.347,328 392,328 C378.212,328 365.454,332.375 355.006,339.791 C354.95,339.75 354.901,339.704 354.844,339.664 C344.143,332.118 331.367,328 318,328 C282.654,328 254,356.654 254,392 C254,427.347 282.654,456 318,456 Z M392,348 C416.301,348 436,367.699 436,392 C436,416.301 416.301,436 392,436 C367.699,436 348,416.301 348,392 C348,367.699 367.699,348 392,348 Z M318,348 C326.023,348 333.705,350.145 340.415,354.129 C332.616,364.734 328,377.826 328,392 C328,406.174 332.615,419.265 340.414,429.869 C333.722,433.842 326.036,436 318,436 C293.699,436 274,416.301 274,392 C274,367.699 293.699,348 318,348 Z" id="card-fraud" fill="url(#linearGradient-1)" fill-rule="nonzero"></path>
    </g>
</svg>