<?xml version="1.0" encoding="UTF-8" standalone="no"?>
<svg width="23px" height="19px" viewBox="0 0 23 19" version="1.1" xmlns="http://www.w3.org/2000/svg" xmlns:xlink="http://www.w3.org/1999/xlink">
    <!-- Generator: Sketch 47.1 (45422) - http://www.bohemiancoding.com/sketch -->
    <title>icon-card</title>
    <desc>Created with Sketch.</desc>
    <defs></defs>
    <g id="Fraud-demo-graph-illustration-v1" stroke="none" stroke-width="1" fill="none" fill-rule="evenodd">
        <path d="M21.0833333,0 C21.6104193,0 22.0616301,0.187671734 22.4369792,0.563020833 C22.8123283,0.938369932 23,1.3895807 23,1.91666667 L23,16.4833333 C23,17.0104193 22.8123283,17.4616301 22.4369792,17.8369792 C22.0616301,18.2123283 21.6104193,18.4 21.0833333,18.4 L1.91666667,18.4 C1.3895807,18.4 0.938369932,18.2123283 0.563020833,17.8369792 C0.187671734,17.4616301 0,17.0104193 0,16.4833333 L0,1.91666667 C0,1.3895807 0.187671734,0.938369932 0.563020833,0.563020833 C0.938369932,0.187671734 1.3895807,0 1.91666667,0 L21.0833333,0 Z M1.91666667,1.53333333 C1.8128467,1.53333333 1.72300385,1.57126698 1.64713542,1.64713542 C1.57126698,1.72300385 1.53333333,1.8128467 1.53333333,1.91666667 L1.53333333,4.6 L21.4666667,4.6 L21.4666667,1.91666667 C21.4666667,1.8128467 21.428733,1.72300385 21.3528646,1.64713542 C21.2769961,1.57126698 21.1871533,1.53333333 21.0833333,1.53333333 L1.91666667,1.53333333 Z M21.0833333,16.8666667 C21.1871533,16.8666667 21.2769961,16.828733 21.3528646,16.7528646 C21.428733,16.6769961 21.4666667,16.5871533 21.4666667,16.4833333 L21.4666667,9.2 L1.53333333,9.2 L1.53333333,16.4833333 C1.53333333,16.5871533 1.57126698,16.6769961 1.64713542,16.7528646 C1.72300385,16.828733 1.8128467,16.8666667 1.91666667,16.8666667 L21.0833333,16.8666667 Z M3.06666667,15.3333333 L3.06666667,13.8 L6.13333333,13.8 L6.13333333,15.3333333 L3.06666667,15.3333333 Z M7.66666667,15.3333333 L7.66666667,13.8 L12.2666667,13.8 L12.2666667,15.3333333 L7.66666667,15.3333333 Z" id="icon-card" fill="#FFFFFF"></path>
    </g>
</svg>
