<?xml version="1.0" encoding="UTF-8" standalone="no"?>
<svg width="16px" height="23px" viewBox="0 0 16 23" version="1.1" xmlns="http://www.w3.org/2000/svg" xmlns:xlink="http://www.w3.org/1999/xlink">
    <!-- Generator: Sketch 47.1 (45422) - http://www.bohemiancoding.com/sketch -->
    <title>icon-pos</title>
    <desc>Created with Sketch.</desc>
    <defs></defs>
    <g id="Fraud-demo-graph-illustration-v1" stroke="none" stroke-width="1" fill="none" fill-rule="evenodd">
        <path d="M13.4294471,2.12227614 L11.9372484,2.12227614 L11.9372484,0.738292484 C11.9372484,0.330756536 11.6030028,0 11.191168,0 L3.97915874,0 C3.5672859,0 3.23304037,0.330756536 3.23304037,0.738292484 L3.23304037,2.12235131 L1.74087958,2.12235131 C0.77893148,2.12235131 0,2.89360294 0,3.84505882 L0,21.2772925 C0,22.2287108 0.778855523,23 1.74087958,23 L13.4293712,23 C14.3912813,23 15.1702128,22.2287484 15.1702128,21.2772925 L15.1702128,3.84498366 C15.1702887,2.8940915 14.3913572,2.12227614 13.4294471,2.12227614 Z M9.57474272,3.84498366 L9.57474272,2.12227614 L9.57474272,1.47662255 L10.4452015,1.47662255 L10.4452015,2.12238889 L10.4452015,3.84509641 L10.4452015,5.4752402 L9.57474272,5.4752402 L9.57474272,3.84498366 Z M4.72531509,3.84498366 L4.72531509,2.12227614 L4.72531509,1.47662255 L7.46087991,1.47662255 L7.46087991,2.12238889 L7.46087991,3.84509641 L7.46087991,5.4752402 L4.72531509,5.4752402 L4.72531509,3.84498366 L4.72531509,3.84498366 Z M5.18139448,20.9790817 C5.18139448,21.3870686 4.84714894,21.7174118 4.4352761,21.7174118 L3.23311632,21.7174118 C2.82124349,21.7174118 2.48699795,21.3871062 2.48699795,20.9790817 L2.48699795,19.708219 C2.48699795,19.300232 2.82124349,18.9699265 3.23311632,18.9699265 L4.4352761,18.9699265 C4.84714894,18.9699265 5.18139448,19.3001944 5.18139448,19.708219 L5.18139448,20.9790817 L5.18139448,20.9790817 Z M5.18139448,17.2669493 C5.18139448,17.6749363 4.84714894,18.0052418 4.4352761,18.0052418 L3.23311632,18.0052418 C2.82124349,18.0052418 2.48699795,17.6749739 2.48699795,17.2669493 L2.48699795,15.9961242 C2.48699795,15.5881373 2.82124349,15.2577941 3.23311632,15.2577941 L4.4352761,15.2577941 C4.84714894,15.2577941 5.18139448,15.5880997 5.18139448,15.9961242 L5.18139448,17.2669493 L5.18139448,17.2669493 Z M5.18139448,13.5553431 C5.18139448,13.9633301 4.84714894,14.2936732 4.4352761,14.2936732 L3.23311632,14.2936732 C2.82124349,14.2936732 2.48699795,13.9633676 2.48699795,13.5553431 L2.48699795,12.284067 C2.48699795,11.8760425 2.82124349,11.5457369 3.23311632,11.5457369 L4.4352761,11.5457369 C4.84714894,11.5457369 5.18139448,11.8760049 5.18139448,12.284067 L5.18139448,13.5553431 L5.18139448,13.5553431 Z M8.93257049,20.9790817 C8.93257049,21.3870686 8.59832496,21.7174118 8.1864901,21.7174118 L6.9838366,21.7174118 C6.57196377,21.7174118 6.23775621,21.3871062 6.23775621,20.9790817 L6.23775621,19.708219 C6.23775621,19.300232 6.57196377,18.9699265 6.9838366,18.9699265 L8.1864901,18.9699265 C8.59832496,18.9699265 8.93257049,19.3001944 8.93257049,19.708219 L8.93257049,20.9790817 Z M8.93257049,17.2669493 C8.93257049,17.6749363 8.59832496,18.0052418 8.1864901,18.0052418 L6.9838366,18.0052418 C6.57196377,18.0052418 6.23775621,17.6749739 6.23775621,17.2669493 L6.23775621,15.9961242 C6.23775621,15.5881373 6.57196377,15.2577941 6.9838366,15.2577941 L8.1864901,15.2577941 C8.59832496,15.2577941 8.93257049,15.5880997 8.93257049,15.9961242 L8.93257049,17.2669493 Z M8.93257049,13.5553431 C8.93257049,13.9633301 8.59832496,14.2936732 8.1864901,14.2936732 L6.9838366,14.2936732 C6.57196377,14.2936732 6.23775621,13.9633676 6.23775621,13.5553431 L6.23775621,12.284067 C6.23775621,11.8760425 6.57196377,11.5457369 6.9838366,11.5457369 L8.1864901,11.5457369 C8.59832496,11.5457369 8.93257049,11.8760049 8.93257049,12.284067 L8.93257049,13.5553431 Z M12.6834427,20.9790817 C12.6834427,21.3870686 12.3491971,21.7174118 11.9373243,21.7174118 L10.7351645,21.7174118 C10.3233297,21.7174118 9.98908414,21.3871062 9.98908414,20.9790817 L9.98908414,19.708219 C9.98908414,19.300232 10.3233297,18.9699265 10.7351645,18.9699265 L11.9373243,18.9699265 C12.3492351,18.9699265 12.6834427,19.3001944 12.6834427,19.708219 L12.6834427,20.9790817 Z M12.6834427,17.2669493 C12.6834427,17.6749363 12.3491971,18.0052418 11.9373243,18.0052418 L10.7351645,18.0052418 C10.3233297,18.0052418 9.98908414,17.6749739 9.98908414,17.2669493 L9.98908414,15.9961242 C9.98908414,15.5881373 10.3233297,15.2577941 10.7351645,15.2577941 L11.9373243,15.2577941 C12.3492351,15.2577941 12.6834427,15.5880997 12.6834427,15.9961242 L12.6834427,17.2669493 Z M12.6834427,13.5553431 C12.6834427,13.9633301 12.3491971,14.2936732 11.9373243,14.2936732 L10.7351645,14.2936732 C10.3233297,14.2936732 9.98908414,13.9633676 9.98908414,13.5553431 L9.98908414,12.284067 C9.98908414,11.8760425 10.3233297,11.5457369 10.7351645,11.5457369 L11.9373243,11.5457369 C12.3492351,11.5457369 12.6834427,11.8760049 12.6834427,12.284067 L12.6834427,13.5553431 Z M12.6834427,9.24430882 C12.6834427,9.94073529 12.1124415,10.5053252 11.4086687,10.5053252 L3.76143011,10.5053252 C3.05765736,10.5053252 2.48711188,9.94073529 2.48711188,9.24430882 L2.48711188,7.94150163 C2.48711188,7.24451144 3.05765736,6.68003431 3.76143011,6.68003431 L11.4086307,6.68003431 C12.1124035,6.68003431 12.6834047,7.24462418 12.6834047,7.94150163 L12.6834047,9.24430882 L12.6834427,9.24430882 Z" id="icon-pos" fill="#FFFFFF" fill-rule="nonzero"></path>
    </g>
</svg>
