<?xml version="1.0" encoding="UTF-8" standalone="no"?>
<svg width="12px" height="23px" viewBox="0 0 12 23" version="1.1" xmlns="http://www.w3.org/2000/svg" xmlns:xlink="http://www.w3.org/1999/xlink">
    <!-- Generator: Sketch 47.1 (45422) - http://www.bohemiancoding.com/sketch -->
    <title>icon-transaction</title>
    <desc>Created with Sketch.</desc>
    <defs></defs>
    <g id="Fraud-demo-graph-illustration-v1" stroke="none" stroke-width="1" fill="none" fill-rule="evenodd">
        <path d="M11.97529,15.2092634 C11.97529,16.5184217 11.549606,17.6457356 10.6982253,18.5912388 C9.84684451,19.5367421 8.74092179,20.1207206 7.38042392,20.343192 L7.38042392,22.5892857 C7.38042392,22.709078 7.34191984,22.8074773 7.26491053,22.8844866 C7.18790121,22.9614959 7.0895019,23 6.96970963,23 L5.23700874,23 C5.12577307,23 5.02951287,22.9593568 4.94822526,22.8780692 C4.86693765,22.7967816 4.82629445,22.7005214 4.82629445,22.5892857 L4.82629445,20.343192 C4.26155949,20.2661827 3.71608503,20.1335575 3.18985472,19.9453125 C2.66362441,19.7570675 2.22938396,19.5666862 1.88712035,19.3741629 C1.54485673,19.1816397 1.22826764,18.9762846 0.937343562,18.7580915 C0.646419488,18.5398985 0.447481745,18.3794648 0.340524365,18.2767857 C0.233566985,18.1741066 0.158697942,18.0970985 0.11591499,18.0457589 C-0.0295470464,17.8660705 -0.0381035085,17.6906631 0.0902453476,17.5195312 L1.41223195,15.7868304 C1.47212809,15.7012645 1.5705274,15.6499257 1.70743285,15.6328125 C1.8357817,15.6156993 1.93845925,15.6542034 2.01546856,15.7483259 L2.0411382,15.7739955 C3.00803292,16.621098 4.04764306,17.1558769 5.15999981,17.3783482 C5.47659366,17.4468009 5.79318275,17.4810268 6.1097766,17.4810268 C6.80286042,17.4810268 7.41250834,17.2970629 7.93873865,16.9291295 C8.46496896,16.5611961 8.72808017,16.0392519 8.72808017,15.3632812 C8.72808017,15.1236967 8.6639067,14.8969505 8.53555785,14.6830357 C8.40720899,14.469121 8.26388825,14.2894353 8.10559133,14.1439732 C7.94729441,13.9985112 7.69701789,13.8380775 7.35475428,13.6626674 C7.01249066,13.4872573 6.73012741,13.3503539 6.50765606,13.2519531 C6.28518471,13.1535523 5.94292623,13.0145098 5.48087035,12.8348214 C5.14716332,12.697916 4.88405211,12.5909602 4.69152883,12.5139509 C4.49900555,12.4369416 4.23589434,12.3235685 3.90218731,12.1738281 C3.56848029,12.0240878 3.30109085,11.8914626 3.10001097,11.7759487 C2.8989311,11.6604347 2.65721105,11.5085575 2.37484356,11.3203125 C2.09247608,11.1320675 1.86359072,10.9502427 1.68818062,10.7748326 C1.51277051,10.5994225 1.32666746,10.3897892 1.12986588,10.1459263 C0.933064304,9.90206351 0.781187103,9.65392611 0.674229723,9.4015067 C0.567272343,9.14908728 0.477429491,8.86458492 0.404698473,8.54799107 C0.331967454,8.23139723 0.29560249,7.89769521 0.29560249,7.546875 C0.29560249,6.36606552 0.714869131,5.33073362 1.55341499,4.44084821 C2.39196085,3.55096281 3.48290976,2.97767985 4.82629445,2.72098214 L4.82629445,0.410714286 C4.82629445,0.29947861 4.86693765,0.203218412 4.94822526,0.121930804 C5.02951287,0.0406431948 5.12577307,0 5.23700874,0 L6.96970963,0 C7.0895019,0 7.18790121,0.0385040792 7.26491053,0.115513393 C7.34191984,0.192522706 7.38042392,0.29092202 7.38042392,0.410714286 L7.38042392,2.66964286 C7.86814957,2.7209824 8.3408941,2.81938171 8.79867169,2.96484375 C9.25644927,3.11030579 9.62865537,3.25362653 9.91530115,3.39481027 C10.2019469,3.53599401 10.4736146,3.69642767 10.7303123,3.87611607 C10.98701,4.05580447 11.153861,4.17987317 11.2308703,4.24832589 C11.3078797,4.31677862 11.3720531,4.37667385 11.4233927,4.42801339 C11.5688547,4.58203202 11.5902459,4.7446048 11.4875668,4.91573661 L10.4479462,6.78962054 C10.3794935,6.91796939 10.2810942,6.98642109 10.1527453,6.99497768 C10.0329531,7.02064745 9.91744084,6.99069983 9.80620517,6.90513393 C9.7805354,6.87946416 9.71850105,6.82812539 9.62010026,6.75111607 C9.52169947,6.67410676 9.35484846,6.56073364 9.11954222,6.4109933 C8.88423599,6.26125297 8.63395947,6.12434958 8.36870517,6.00027902 C8.10345087,5.87620846 7.78472266,5.76497445 7.41251097,5.66657366 C7.04029929,5.56817287 6.67451054,5.51897321 6.31513374,5.51897321 C5.50225765,5.51897321 4.83913184,5.70293715 4.32573642,6.07087054 C3.81234099,6.43880392 3.55564713,6.91368757 3.55564713,7.49553571 C3.55564713,7.71800706 3.5920121,7.92336215 3.66474312,8.11160714 C3.73747413,8.29985213 3.86368195,8.47739872 4.04337035,8.64425223 C4.22305875,8.81110574 4.39204887,8.95228737 4.55034579,9.06780134 C4.70864272,9.18331531 4.94822365,9.31594047 5.26909579,9.4656808 C5.58996793,9.61542114 5.84880091,9.73093337 6.04560249,9.81222098 C6.24240407,9.89350859 6.54188024,10.0111599 6.94403999,10.1651786 C7.39753928,10.3363104 7.74407599,10.4710747 7.98366053,10.5694754 C8.22324506,10.6678762 8.54839062,10.8176143 8.95910695,11.0186942 C9.36982329,11.2197741 9.69282974,11.4015989 9.92813597,11.5641741 C10.1634422,11.7267493 10.4286925,11.9406609 10.7238949,12.2059152 C11.0190973,12.4711695 11.2458435,12.7428372 11.4041404,13.0209263 C11.5624374,13.2990155 11.6972016,13.6263002 11.8084373,14.0027902 C11.919673,14.3792802 11.97529,14.7814339 11.97529,15.2092634 Z" id="icon-transaction" fill="#FFFFFF"></path>
    </g>
</svg>
